<?xml version="1.0" encoding="utf-8" ?><svg xmlns="http://www.w3.org/2000/svg" xmlns:xlink="http://www.w3.org/1999/xlink" width="519" height="513" viewBox="207 215 519 513"><defs><linearGradient id="gradient_0" gradientUnits="userSpaceOnUse" x1="557.28278" y1="526.00879" x2="272.21814" y2="318.8194"><stop offset="0" stop-color="#5CDEB7"/><stop offset="1" stop-color="#ACFFE4"/></linearGradient></defs><path fill="url(#gradient_0)" transform="matrix(0.973958 0 0 0.973958 0 1.90735e-06)" d="M450.327 242.569C458.829 233.593 465.896 228.159 478.677 226.723C489.301 225.631 499.925 228.793 508.224 235.516C518.994 244.279 522.785 255.343 524.23 268.68C551.259 276.117 591.996 294.044 615.467 309.29C625.861 297.616 638.758 292.306 654.42 295.361C664.816 297.352 673.974 303.44 679.832 312.255C686.128 321.572 688.43 333.022 686.221 344.048C677.796 384.835 623.959 388.343 608.051 351.12C604.464 342.728 604.275 334.754 606.253 325.854C590.025 315.713 570.668 306.572 552.931 299.283C542.106 294.834 530.558 291.204 519.945 286.239C509.775 307.074 485.226 316.469 464.408 305.442C456.73 314.951 446.625 325.546 438.197 334.554C424.425 349.037 410.786 363.648 397.284 378.384C397.963 379.538 398.607 380.713 399.213 381.908C403.165 389.911 403.798 399.151 400.973 407.618C398.092 415.996 391.994 422.881 384.026 426.753C375.77 430.752 367.269 431.043 358.648 428.05C350.163 425.148 343.206 418.949 339.348 410.853C335.474 402.765 335.062 393.448 338.206 385.049C341.296 376.523 347.711 369.614 355.984 365.9C365.072 361.901 373.393 362.851 382.378 366.347C404.682 341.943 427.162 317.701 449.817 293.623C442.611 282.329 441.733 276.4 441.839 263.401C415.195 270.061 393.753 276.042 369.758 290.587C361.292 295.718 354.191 301.164 346.05 306.389C347.221 311.857 347.568 317.572 346.418 323.073C344.647 331.549 339.571 338.969 332.315 343.694C324.004 349.103 315.766 349.8 306.319 347.744C301.6 356.813 294.533 367.316 289.334 377.133C275.658 402.958 270.118 423.764 263.83 451.762C286.619 456.724 302.266 472.574 300.752 497.523C300.415 503.066 298.111 508.167 295.716 513.118C316.24 530.876 336.37 551.172 356.828 569.658C365.683 564.836 373.71 562.856 383.676 565.791C392.109 568.318 399.178 574.122 403.298 581.902C407.704 589.981 408.717 599.481 406.112 608.306C400.701 626.251 381.606 635.275 364.002 629.674C355.612 626.959 348.658 620.998 344.692 613.122C339.867 603.518 340.498 594.024 343.725 584.104C323.841 564.916 303.485 546.397 283.558 527.324C277.998 531.928 271.777 533.403 264.867 534.598C267.036 541.124 268.65 549.538 271.092 556.869C280.278 584.45 291.199 604.08 308.878 626.669C307.053 626.564 306.974 626.686 305.274 627.198C304.318 629.075 305.273 629.572 303.908 631.621C301.942 631.468 301.261 631.195 299.562 632.193C296.762 635.567 298.479 641.051 299.383 645.021C295.297 641.166 288.82 632.561 285.374 627.886C263.554 598.291 252.602 568.003 245.242 532.374C235.456 527.696 228.609 523.161 223.264 513.27C217.943 503.263 216.868 491.538 220.279 480.731C224.442 467.411 232.404 460.464 244.219 454.181C251.435 410.81 264.208 374.111 290.221 338.473C262.963 308.772 301.415 264.093 335.609 290.841C360.77 270.595 393.472 255.828 424.607 247.522C432.945 245.297 441.741 244.703 449.795 242.705L450.327 242.569Z"/><defs><linearGradient id="gradient_1" gradientUnits="userSpaceOnUse" x1="668.37549" y1="681.3291" x2="421.57248" y2="481.17316"><stop offset="0" stop-color="#3AC39A"/><stop offset="1" stop-color="#7AEFCB"/></linearGradient></defs><path fill="url(#gradient_1)" transform="matrix(0.973958 0 0 0.973958 0 1.90735e-06)" d="M661.351 480.346C666.241 468.446 671.484 460.153 683.955 454.922C694.357 450.512 706.101 450.497 716.514 454.882C726.404 458.962 734.239 467.283 738.097 477.162C747.06 500.115 735.625 523.554 713.169 532.125C709.811 569.487 684.369 621.244 659.97 649.265C666.661 658.025 669.703 665.284 668.339 676.653C667.346 684.933 661.756 693.531 655.082 698.471C647.987 703.703 639.082 705.853 630.381 704.435C621.251 702.983 616.144 698.712 610.051 692.276C588.75 707.486 559.623 717.601 534.261 723.258C528.648 724.51 521.599 725.4 515.801 726.35C499.674 745.128 474.51 749.132 455.279 732.402C453.11 730.478 451.114 728.369 449.313 726.097C401.802 720.814 352.106 695.762 317.117 663.429C312.936 659.565 302.371 649.666 299.383 645.021C298.479 641.051 296.762 635.567 299.562 632.193C301.261 631.195 301.942 631.468 303.908 631.621C305.273 629.572 304.318 629.075 305.274 627.198C306.974 626.686 307.053 626.564 308.878 626.669C335.836 658.249 368.102 681.9 407.382 696.188C418.255 700.143 430.664 703.259 441.932 705.924C440.653 695.686 443.824 684.33 450.203 676.179C456.95 667.673 466.784 662.176 477.565 660.887C487.14 659.778 494.725 662.081 503.153 666.312C521.208 645.707 540.417 625.972 559.299 606.103C549.014 587.544 552.419 567.321 571.917 556.838C579.106 552.886 587.592 552.031 595.425 554.468C613.427 559.978 624.406 579.031 618.673 597.175C615.934 605.851 609.802 613.051 601.672 617.135C593.41 621.384 585.185 621.676 576.444 618.822C575.371 618.479 574.309 618.099 573.262 617.683C568.759 623.942 556.628 637.187 550.973 643.114C540.037 654.575 528.072 668.546 516.987 679.466C522.881 689.274 524.097 695.075 523.469 706.474C551.589 700.751 578.484 690.129 602.926 675.092C602.32 664.945 604.469 656.78 611.375 649.014C616.911 642.685 624.789 638.887 633.189 638.497C636.882 638.344 640.576 638.73 644.158 639.642C670.504 604.453 684.919 576.781 693.881 533.668C673.923 527.767 664.308 519.274 660.286 498.775L569.967 498.963L537.813 498.939C532.276 498.913 524.224 499.04 518.825 498.578C514.695 509.034 509.665 516.226 498.953 520.857C489.969 524.805 479.778 524.985 470.66 521.357C461.856 517.836 454.869 510.876 451.315 502.085C447.528 492.835 447.591 482.456 451.492 473.253C455.121 464.568 462.119 457.727 470.884 454.296C479.893 450.812 489.917 451.048 498.752 454.952C509.7 459.849 516.008 469.179 519.371 480.407C566.697 479.981 614.025 479.96 661.351 480.346Z"/><path fill="#47C4A0" transform="matrix(0.973958 0 0 0.973958 0 1.90735e-06)" d="M524.651 651.762L525.118 652.188C525.963 654.618 527.093 658.89 526.983 661.451C526.14 660.304 524.308 653.127 524.651 651.762Z"/></svg>